<svg xmlns="http://www.w3.org/2000/svg" xmlns:xlink="http://www.w3.org/1999/xlink" id="Camada_1" x="0px" y="0px" viewBox="0 0 310.2 82.4" style="enable-background:new 0 0 310.2 82.4;" xml:space="preserve"><style type="text/css">	.st0{fill:#FFFFFF;}</style><g>	<path class="st0" d="M206.9,34c0,2.5,0,5,0,7.4c0,2.9-0.1,3-2.7,1.8C195.1,39,186,34.8,177,30.5c-3.2-1.5-3.4-1.4-3.4,2.2  c0,3.1,0,6.1,0,9.2c0,1.3-0.2,2.4-1.9,2.3c-1.6-0.1-1.5-1.3-1.5-2.3c0-5.1,0-10.3,0-15.4c0-2.5,0.3-2.7,2.6-1.6  c9.2,4.3,18.3,8.5,27.4,12.8c3.2,1.5,3.3,1.4,3.3-2.3c0-3.1,0-6.3,0-9.4c0-1.1,0.1-2,1.5-2c1.5,0,1.9,0.8,1.8,2  C206.9,28.7,206.9,31.3,206.9,34L206.9,34z"></path>	<path class="st0" d="M275,44.7c-3.1-0.4-6.9,0.1-10.7,0c-0.6,0-1.3,0.1-1.6-0.4c-0.4-0.7,0.2-1.2,0.6-1.7  c5.2-5.8,10.5-11.5,15.7-17.3c0.9-1,1.6-1.1,2.6-0.1c5.4,6,10.8,11.9,16.3,17.8c0.3,0.4,0.8,0.8,0.4,1.3c-0.2,0.2-0.7,0.3-1.1,0.3  c-1.6,0-2.9-0.5-3.9-1.7c-3.5-3.9-7-7.7-10.6-11.6c-2.1-2.3-2.4-2.3-4.4,0c-2.4,2.7-4.8,5.3-7.2,7.9c-0.4,0.5-1.2,0.9-0.8,1.6  c0.3,0.7,1.2,0.5,1.8,0.5c4.2,0,8.5,0,12.7,0c0.7,0,1.6-0.1,2.2,0.2c1.2,0.5,2.5,1.3,2.4,2.5c-0.1,1.1-1.7,0.7-2.6,0.7  C283,44.8,279.4,44.7,275,44.7z"></path>	<path class="st0" d="M160.4,34.3c0,2.6,0,5.1,0,7.7c0,1.9-0.6,2.3-2.4,1.4c-9.1-4.3-18.3-8.6-27.4-12.9c-3.3-1.5-3.6-1.3-3.6,2.3  c0,3.1,0,6.1,0,9.2c0,1.2-0.1,2.2-1.7,2.2c-1.5,0-1.7-1-1.7-2.2c0-5.3,0-10.6,0-15.9c0-2.4,1.2-2.1,2.7-1.3c9,4.3,18,8.5,27,12.7  c0.3,0.1,0.6,0.3,0.9,0.4c2.5,1.1,2.9,0.8,3-1.8c0-3,0-6,0-8.9c0-1.3-0.6-3.2,1.7-3.2c2.2,0.1,1.5,2,1.5,3.3  C160.5,29.6,160.4,32,160.4,34.3z"></path>	<path class="st0" d="M87,44.5c-3.9,0-7.8-0.1-11.7,0c-2.3,0.1-3.3-0.6-3.2-3.1c0.1-4.8,0-9.6,0.1-14.4c0-1.2-0.5-3,1.6-3  c2.2,0,1.8,1.8,1.8,3.1c0.1,3.7,0.1,7.4,0,11.2c-0.1,2.2,0.7,3.1,3,3.1c6.5-0.1,13.1,0,19.6,0c0.7,0,1.5,0,2.2,0  c1.1,0,1.7,0.5,1.7,1.6c0,1.3-0.8,1.5-1.8,1.5C95.9,44.5,91.4,44.4,87,44.5C87,44.4,87,44.5,87,44.5z"></path>	<path class="st0" d="M234.1,32.5c5,0,10.1,0,15.1,0c1.1,0,2.4-0.2,2.5,1.6c0,1.9-1.3,1.8-2.6,1.8c-10,0-20,0-30,0  c-1.2,0-2.6,0.2-2.6-1.7c0-2,1.5-1.6,2.7-1.6C224.2,32.5,229.1,32.5,234.1,32.5z"></path>	<path class="st0" d="M235.1,41.3c5.2,0,10.4,0,15.6,0c1.1,0,2.4-0.2,2.5,1.6c0.1,1.9-1.2,1.5-2.4,1.6c-10.4,0.5-20.8-0.3-31.2,0.3  c-0.4,0-0.8,0-1.2,0c-1.1,0-1.9-0.4-1.9-1.7s0.9-1.7,2-1.7c4.1,0,8.1,0,12.2,0C232.1,41.3,233.6,41.3,235.1,41.3L235.1,41.3z"></path>	<path class="st0" d="M235.1,27c-4.9,0-9.8,0-14.6,0c-0.5,0-1,0-1.5,0c-1.2,0-2.5,0.1-2.4-1.7c0-1.6,1.3-1.4,2.4-1.5  c2.6,0,5.3,0,7.9,0c7.5,0,15,0,22.6,0c0.4,0,0.8,0,1.2,0c1.1,0.1,2.5-0.3,2.6,1.5c0,1.8-1.4,1.6-2.5,1.6  C245.5,27,240.3,27,235.1,27L235.1,27z"></path>	<path class="st0" d="M114.1,34.4c0,2.7,0,5.3,0,8c0,1,0.1,2.1-1.4,2.1c-1.3,0-2.1-0.4-2.1-1.9c0-5.6,0-11.3,0-16.9  c0-1.1,0.4-1.8,1.6-1.7c1.2,0,1.9,0.5,1.9,1.8C114,28.6,114,31.5,114.1,34.4C114,34.4,114,34.4,114.1,34.4z"></path></g><g>	<path class="st0" d="M74.5,64.3c-0.2,0-0.3,0-0.3-0.1c-0.1,0-0.1-0.1-0.1-0.2s0-0.2,0-0.3v-6.9c0-0.2,0-0.3,0.1-0.4  c0.1-0.1,0.2-0.1,0.4-0.1h4.6c0.1,0,0.2,0,0.3,0c0.1,0,0.1,0.1,0.2,0.1c0,0.1,0.1,0.2,0.1,0.3c0,0.2,0,0.3-0.1,0.3  c0,0.1-0.1,0.1-0.2,0.1s-0.2,0-0.3,0H75v2.4h2.8c0.1,0,0.2,0,0.3,0c0.1,0,0.1,0.1,0.2,0.1c0,0.1,0.1,0.2,0.1,0.3s0,0.2-0.1,0.3  c0,0.1-0.1,0.1-0.2,0.1s-0.2,0-0.3,0H75v2.6h4.1c0.1,0,0.2,0,0.3,0c0.1,0,0.1,0.1,0.2,0.1c0,0.1,0.1,0.2,0.1,0.3  c0,0.2,0,0.3-0.1,0.3c0,0.1-0.1,0.1-0.2,0.1s-0.2,0-0.3,0h-4.6V64.3z"></path>	<path class="st0" d="M87.9,64.4c-0.3,0-0.6,0-0.8-0.1c-0.3-0.1-0.5-0.2-0.7-0.3c-0.2-0.1-0.4-0.2-0.6-0.4c-0.2-0.1-0.3-0.3-0.4-0.4  c-0.1-0.1-0.1-0.2-0.2-0.3c0-0.1,0-0.2,0-0.2c0-0.1,0.1-0.2,0.2-0.3s0.2-0.1,0.3-0.1c0.1,0,0.2,0,0.3,0.1s0.2,0.2,0.2,0.3  c0.2,0.3,0.4,0.4,0.7,0.6c0.3,0.1,0.5,0.2,0.8,0.2s0.6,0,0.9-0.1s0.5-0.2,0.6-0.4s0.2-0.4,0.2-0.7c0-0.2-0.1-0.4-0.2-0.6  c-0.1-0.2-0.3-0.3-0.5-0.4c-0.2-0.1-0.4-0.2-0.7-0.3c-0.3-0.1-0.5-0.2-0.8-0.3c-0.2-0.1-0.4-0.1-0.6-0.2c-0.2-0.1-0.4-0.2-0.6-0.3  s-0.3-0.2-0.5-0.4c-0.1-0.2-0.2-0.3-0.3-0.5c-0.1-0.2-0.1-0.4-0.1-0.7c0-0.4,0.1-0.8,0.3-1.1c0.2-0.3,0.5-0.6,0.9-0.7  c0.4-0.2,0.8-0.3,1.3-0.3c0.3,0,0.6,0,0.8,0.1c0.2,0.1,0.4,0.1,0.6,0.2c0.2,0.1,0.3,0.2,0.5,0.3c0.1,0.1,0.2,0.2,0.3,0.3  c0.1,0.1,0.2,0.3,0.2,0.4c0,0.1,0,0.2-0.2,0.4c0.1-0.2,0-0.2-0.1-0.2c-0.1,0-0.2,0-0.4-0.2c-0.1-0.2-0.3-0.3-0.5-0.4  s-0.3-0.2-0.5-0.2s-0.4-0.1-0.6-0.1s-0.4,0-0.5,0.1c-0.2,0.1-0.3,0.1-0.4,0.2c-0.1,0.1-0.2,0.2-0.3,0.4s-0.1,0.3-0.1,0.5  s0.1,0.4,0.2,0.5s0.3,0.3,0.4,0.4c0.2,0.1,0.4,0.2,0.6,0.3s0.5,0.2,0.7,0.2c0.3,0.1,0.5,0.2,0.8,0.3s0.5,0.3,0.7,0.4  c0.2,0.2,0.4,0.4,0.5,0.6c0.1,0.3,0.2,0.6,0.2,1s-0.1,0.7-0.2,1s-0.4,0.5-0.6,0.7c-0.3,0.2-0.6,0.3-0.9,0.4  C88.6,64.4,88.2,64.4,87.9,64.4z"></path>	<path class="st0" d="M102.3,56.4c0.1,0,0.2,0,0.3,0c0.1,0,0.1,0.1,0.2,0.1c0,0.1,0.1,0.2,0.1,0.3s0,0.2-0.1,0.3  c0,0.1-0.1,0.1-0.2,0.1s-0.2,0-0.3,0h-2.4v6.5c0,0.1,0,0.2,0,0.3c0,0.1-0.1,0.1-0.1,0.2c-0.1,0-0.2,0.1-0.3,0.1  c-0.1,0-0.3,0-0.3-0.1c-0.1,0-0.1-0.1-0.1-0.2c0-0.1,0-0.2,0-0.3v-6.5h-2.4c-0.1,0-0.2,0-0.3,0s-0.1-0.1-0.2-0.1  c0-0.1-0.1-0.2-0.1-0.3s0-0.2,0.1-0.3c0-0.1,0.1-0.1,0.2-0.1s0.2,0,0.2,0H102.3z"></path>	<path class="st0" d="M109.1,64.3c-0.2,0-0.3,0-0.3-0.1c-0.1,0-0.1-0.1-0.1-0.2s0-0.2,0-0.3v-6.9c0-0.2,0-0.3,0.1-0.4  c0.1-0.1,0.2-0.1,0.4-0.1h4.6c0.1,0,0.2,0,0.3,0s0.1,0.1,0.2,0.1c0,0.1,0.1,0.2,0.1,0.3c0,0.2,0,0.3-0.1,0.3c0,0.1-0.1,0.1-0.2,0.1  s-0.2,0-0.3,0h-4.1v2.4h2.8c0.1,0,0.2,0,0.3,0c0.1,0,0.1,0.1,0.2,0.1c0,0.1,0.1,0.2,0.1,0.3s0,0.2-0.1,0.3c0,0.1-0.1,0.1-0.2,0.1  s-0.2,0-0.3,0h-2.8v2.6h4.1c0.1,0,0.2,0,0.3,0c0.1,0,0.1,0.1,0.2,0.1c0,0.1,0.1,0.2,0.1,0.3c0,0.2,0,0.3-0.1,0.3  c0,0.1-0.1,0.1-0.2,0.1s-0.2,0-0.3,0h-4.7V64.3z M111.1,55.8c-0.1,0-0.2,0-0.3,0s-0.1-0.1-0.2-0.3s-0.1-0.3,0-0.4  c0-0.1,0.1-0.1,0.3-0.2l1.8-0.6c0.1,0,0.2,0,0.3,0c0.1,0.1,0.1,0.1,0.2,0.3s0.1,0.3,0,0.4c0,0.1-0.1,0.1-0.3,0.2L111.1,55.8z"></path>	<path class="st0" d="M126.1,56.4c0.1,0,0.2,0,0.3,0c0.1,0,0.1,0.1,0.2,0.1c0,0.1,0.1,0.2,0.1,0.3s0,0.2-0.1,0.3  c0,0.1-0.1,0.1-0.2,0.1s-0.2,0-0.3,0h-2.4v6.5c0,0.1,0,0.2,0,0.3c0,0.1-0.1,0.1-0.1,0.2c-0.1,0-0.2,0.1-0.3,0.1  c-0.1,0-0.3,0-0.3-0.1c-0.1,0-0.1-0.1-0.1-0.2c0-0.1,0-0.2,0-0.3v-6.5h-2.4c-0.1,0-0.2,0-0.3,0s-0.1-0.1-0.2-0.1  c0-0.1-0.1-0.2-0.1-0.3s0-0.2,0.1-0.3c0-0.1,0.1-0.1,0.2-0.1s0.2,0,0.2,0H126.1z"></path>	<path class="st0" d="M132.7,64.3c-0.2,0-0.3,0-0.3-0.1c-0.1,0-0.1-0.1-0.1-0.2s0-0.2,0-0.3v-6.9c0-0.1,0-0.2,0-0.3s0.1-0.1,0.1-0.2  c0.1,0,0.2-0.1,0.3-0.1s0.3,0,0.3,0.1c0.1,0,0.1,0.1,0.1,0.2c0,0.1,0,0.2,0,0.3v6.9c0,0.1,0,0.2,0,0.3s-0.1,0.1-0.1,0.2  S132.9,64.3,132.7,64.3z"></path>	<path class="st0" d="M143.1,64.3c-0.4,0-0.8-0.1-1.2-0.2s-0.7-0.3-1.1-0.5c-0.3-0.2-0.6-0.5-0.9-0.8s-0.4-0.7-0.6-1.1  c-0.1-0.4-0.2-0.9-0.2-1.4s0.1-0.9,0.2-1.4c0.1-0.4,0.3-0.8,0.6-1.1s0.5-0.6,0.9-0.8c0.3-0.2,0.7-0.4,1.1-0.5  c0.4-0.1,0.8-0.2,1.2-0.2s0.7,0,1,0.1s0.5,0.2,0.7,0.3s0.3,0.2,0.4,0.2c0.1,0.1,0.2,0.1,0.3,0.2c0.1,0.1,0.2,0.2,0.2,0.3  s0,0.2,0,0.2c0,0.1-0.1,0.1-0.1,0.2c-0.1,0.1-0.1,0.2-0.2,0.2c-0.1,0-0.1,0.1-0.2,0.1c-0.1,0-0.1,0-0.2-0.1c-0.1,0-0.1-0.1-0.2-0.2  c0,0-0.1-0.1-0.3-0.1c-0.1-0.1-0.3-0.1-0.5-0.2c-0.2-0.1-0.5-0.1-0.8-0.1c-0.4,0-0.8,0.1-1.1,0.2c-0.4,0.1-0.7,0.3-0.9,0.6  c-0.3,0.3-0.5,0.6-0.6,0.9s-0.2,0.8-0.2,1.2c0,0.5,0.1,0.9,0.2,1.2c0.2,0.4,0.4,0.7,0.6,0.9c0.3,0.3,0.6,0.5,0.9,0.6  c0.3,0.1,0.7,0.2,1.1,0.2c0.3,0,0.5,0,0.8-0.1c0.2-0.1,0.4-0.1,0.5-0.2c0.1-0.1,0.2-0.1,0.3-0.2c0.1,0,0.2-0.1,0.2-0.1  c0.1,0,0.1-0.1,0.2-0.1s0.1,0,0.2,0.1c0.1,0,0.1,0.1,0.2,0.2c0,0.1,0.1,0.1,0.1,0.2c0,0.1,0,0.1,0,0.2c0,0.1-0.1,0.2-0.2,0.3  c-0.1,0.1-0.2,0.2-0.3,0.2s-0.2,0.1-0.3,0.2c-0.2,0.1-0.4,0.2-0.7,0.3C143.8,64.3,143.5,64.3,143.1,64.3z"></path>	<path class="st0" d="M158.5,63.6c0.1,0.1,0.1,0.2,0.1,0.3s0,0.2-0.1,0.2c-0.1,0.1-0.1,0.1-0.3,0.2s-0.3,0.1-0.4,0.1  c-0.1-0.1-0.2-0.2-0.3-0.3l-2.8-6.1l-2.8,6c-0.1,0.2-0.2,0.3-0.3,0.3s-0.2,0-0.4-0.1c-0.1,0-0.2-0.1-0.2-0.2  c-0.1-0.1-0.1-0.2-0.1-0.3s0.1-0.2,0.1-0.3l3.3-6.8c0-0.1,0.1-0.2,0.2-0.2c0.1-0.1,0.2-0.1,0.3-0.1s0.1,0,0.2,0  c0.1,0,0.1,0.1,0.2,0.1c0,0,0.1,0.1,0.1,0.2L158.5,63.6z M152.5,62.1l0.4-0.9h3.5l0.4,0.9H152.5z"></path>	<path class="st0" d="M178.5,63.6c0.1,0.1,0.1,0.2,0.1,0.3s0,0.2-0.1,0.2c-0.1,0.1-0.1,0.1-0.3,0.2s-0.3,0.1-0.4,0.1  c-0.1-0.1-0.2-0.2-0.3-0.3l-2.8-6.1l-2.8,6c-0.1,0.2-0.2,0.3-0.3,0.3s-0.2,0-0.4-0.1c-0.1,0-0.2-0.1-0.2-0.2  c-0.1-0.1-0.1-0.2-0.1-0.3s0.1-0.2,0.1-0.3l3.3-6.8c0-0.1,0.1-0.2,0.2-0.2c0.1-0.1,0.2-0.1,0.3-0.1s0.1,0,0.2,0  c0.1,0,0.1,0.1,0.2,0.1s0.1,0.1,0.1,0.2L178.5,63.6z M172.6,62.1l0.4-0.9h3.5l0.4,0.9H172.6z"></path>	<path class="st0" d="M187.4,64.3c-0.1,0-0.2,0-0.3-0.1c-0.1,0-0.2-0.1-0.2-0.2l-2.9-7c-0.1-0.2-0.1-0.3,0-0.4  c0.1-0.1,0.2-0.2,0.3-0.2c0.1-0.1,0.2-0.1,0.3-0.1s0.2,0,0.2,0.1c0.1,0.1,0.1,0.1,0.2,0.3l2.5,6.3l2.4-6.2c0.1-0.1,0.1-0.2,0.2-0.3  c0.1-0.1,0.1-0.1,0.2-0.1c0.1,0,0.2,0,0.3,0.1c0.2,0.1,0.3,0.2,0.3,0.3s0,0.2-0.1,0.4l-2.9,6.9c0,0.1-0.1,0.2-0.2,0.2  S187.5,64.3,187.4,64.3z"></path>	<path class="st0" d="M203.8,63.6c0.1,0.1,0.1,0.2,0.1,0.3s0,0.2-0.1,0.2c-0.1,0.1-0.1,0.1-0.3,0.2s-0.3,0.1-0.4,0.1  c-0.1-0.1-0.2-0.2-0.3-0.3L200,58l-2.8,6c-0.1,0.2-0.2,0.3-0.3,0.3s-0.2,0-0.4-0.1c-0.1,0-0.2-0.1-0.2-0.2  c-0.1-0.1-0.1-0.2-0.1-0.3s0.1-0.2,0.1-0.3l3.3-6.8c0-0.1,0.1-0.2,0.2-0.2c0.1-0.1,0.2-0.1,0.3-0.1s0.1,0,0.2,0  c0.1,0,0.1,0.1,0.2,0.1s0.1,0.1,0.1,0.2L203.8,63.6z M197.9,62.1l0.4-0.9h3.5l0.4,0.9H197.9z"></path>	<path class="st0" d="M209.9,64.3c-0.1,0-0.2,0-0.3-0.1c-0.1,0-0.1-0.1-0.1-0.2s0-0.2,0-0.3v-6.9c0-0.1,0-0.2,0-0.2  c0-0.1,0.1-0.1,0.2-0.2c0.1,0,0.2-0.1,0.3-0.1c0.2,0,0.3,0,0.4,0c0.1,0,0.1,0.1,0.2,0.2l4.3,6.1v-5.8c0-0.1,0-0.2,0-0.2  c0-0.1,0.1-0.1,0.2-0.2c0.1,0,0.2-0.1,0.3-0.1s0.2,0,0.3,0.1s0.1,0.1,0.1,0.2c0,0.1,0,0.2,0,0.3v6.9c0,0.1,0,0.2-0.1,0.3  c0,0.1-0.1,0.1-0.2,0.2c-0.1,0-0.2,0.1-0.3,0.1s-0.2,0-0.3,0s-0.1-0.1-0.2-0.2l-4.3-6v5.7c0,0.1,0,0.2,0,0.3s-0.1,0.1-0.2,0.2  C210.1,64.3,210,64.3,209.9,64.3z"></path>	<path class="st0" d="M225.8,64.3c-0.4,0-0.8-0.1-1.2-0.2s-0.7-0.3-1.1-0.5c-0.3-0.2-0.6-0.5-0.9-0.8s-0.4-0.7-0.6-1.1  c-0.1-0.4-0.2-0.9-0.2-1.4s0.1-0.9,0.2-1.4c0.1-0.4,0.3-0.8,0.6-1.1s0.5-0.6,0.9-0.8c0.3-0.2,0.7-0.4,1.1-0.5  c0.4-0.1,0.8-0.2,1.2-0.2s0.7,0,1,0.1s0.5,0.2,0.7,0.3s0.3,0.2,0.4,0.2c0.1,0.1,0.2,0.1,0.3,0.2c0.1,0.1,0.2,0.2,0.2,0.3  s0,0.2,0,0.2c0,0.1-0.1,0.1-0.1,0.2c-0.1,0.1-0.1,0.2-0.2,0.2c-0.1,0-0.1,0.1-0.2,0.1c-0.1,0-0.1,0-0.2-0.1c-0.1,0-0.1-0.1-0.2-0.2  c0,0-0.1-0.1-0.3-0.1c-0.1-0.1-0.3-0.1-0.5-0.2c-0.2-0.1-0.5-0.1-0.8-0.1c-0.4,0-0.8,0.1-1.1,0.2c-0.4,0.1-0.7,0.3-0.9,0.6  c-0.3,0.3-0.5,0.6-0.6,0.9c-0.2,0.4-0.2,0.8-0.2,1.2c0,0.5,0.1,0.9,0.2,1.2c0.2,0.4,0.4,0.7,0.6,0.9c0.3,0.3,0.6,0.5,0.9,0.6  c0.3,0.1,0.7,0.2,1.1,0.2c0.3,0,0.5,0,0.8-0.1c0.2-0.1,0.4-0.1,0.5-0.2c0.1-0.1,0.2-0.1,0.3-0.2c0.1,0,0.2-0.1,0.2-0.1  c0.1,0,0.1-0.1,0.2-0.1s0.1,0,0.2,0.1c0.1,0,0.1,0.1,0.2,0.2c0,0.1,0.1,0.1,0.1,0.2c0,0.1,0,0.1,0,0.2c0,0.1-0.1,0.2-0.2,0.3  c-0.1,0.1-0.2,0.2-0.3,0.2s-0.2,0.1-0.3,0.2c-0.2,0.1-0.4,0.2-0.7,0.3C226.5,64.3,226.2,64.3,225.8,64.3z M225.4,66.1  c-0.2,0-0.3,0-0.5-0.1s-0.3-0.2-0.3-0.3c0-0.1,0-0.2,0.1-0.2c0.1-0.1,0.1-0.1,0.1-0.2h0.1c0.1,0,0.1,0,0.2,0.1  c0.1,0.1,0.2,0.1,0.2,0.1c0.1,0,0.2,0,0.3-0.1s0.1-0.2,0.1-0.3c0-0.1,0-0.2-0.1-0.3c-0.1-0.1-0.2-0.1-0.3-0.1s-0.2,0-0.3,0.1  s-0.1,0.1-0.2,0.1c0,0-0.1,0-0.1-0.1c0,0-0.1-0.1-0.1-0.2s-0.1-0.1-0.1-0.1v-0.1c0-0.1,0.1-0.1,0.1-0.2c0.1-0.1,0.2-0.1,0.3-0.1  s0.2-0.1,0.3-0.1c0.2,0,0.4,0,0.5,0.1c0.2,0.1,0.3,0.2,0.4,0.4c0.1,0.2,0.2,0.3,0.2,0.6c0,0.2-0.1,0.4-0.1,0.6  c-0.1,0.2-0.2,0.3-0.4,0.4C225.8,66,225.6,66.1,225.4,66.1z"></path>	<path class="st0" d="M241.2,63.6c0.1,0.1,0.1,0.2,0.1,0.3s0,0.2-0.1,0.2s-0.1,0.1-0.3,0.2s-0.3,0.1-0.4,0.1  c-0.1-0.1-0.2-0.2-0.3-0.3l-2.8-6.1l-2.8,6c-0.1,0.2-0.2,0.3-0.3,0.3s-0.2,0-0.4-0.1c-0.1,0-0.2-0.1-0.2-0.2  c-0.1-0.1-0.1-0.2-0.1-0.3s0.1-0.2,0.1-0.3l3.3-6.8c0-0.1,0.1-0.2,0.2-0.2c0.1-0.1,0.2-0.1,0.3-0.1s0.1,0,0.2,0  c0.1,0,0.1,0.1,0.2,0.1c0,0,0.1,0.1,0.1,0.2L241.2,63.6z M235.2,62.1l0.4-0.9h3.5l0.4,0.9H235.2z"></path>	<path class="st0" d="M247.2,64.3c-0.1,0-0.2,0-0.3-0.1c-0.1,0-0.1-0.1-0.2-0.2c0-0.1,0-0.2,0-0.3v-6.9c0-0.1,0-0.2,0-0.3  s0.1-0.1,0.2-0.2c0.1,0,0.2-0.1,0.3-0.1h2.2c0.6,0,1.1,0.1,1.5,0.3c0.5,0.2,0.9,0.5,1.2,0.8s0.6,0.8,0.8,1.2c0.2,0.5,0.3,1,0.3,1.6  s-0.1,1.2-0.3,1.7s-0.4,0.9-0.8,1.3c-0.3,0.3-0.7,0.6-1.2,0.8s-1,0.3-1.5,0.3L247.2,64.3L247.2,64.3z M247.7,63.3h1.7  c0.6,0,1-0.1,1.4-0.4c0.4-0.2,0.7-0.6,0.9-1s0.3-1,0.3-1.6s-0.1-1.1-0.3-1.6c-0.2-0.4-0.5-0.8-0.9-1s-0.9-0.4-1.4-0.4h-1.7V63.3z"></path>	<path class="st0" d="M266.2,63.6c0.1,0.1,0.1,0.2,0.1,0.3s0,0.2-0.1,0.2c-0.1,0.1-0.1,0.1-0.3,0.2c-0.2,0.1-0.3,0.1-0.4,0.1  c-0.1-0.1-0.2-0.2-0.3-0.3l-2.8-6.1l-2.8,6c-0.1,0.2-0.2,0.3-0.3,0.3s-0.2,0-0.4-0.1c-0.1,0-0.2-0.1-0.2-0.2  c-0.1-0.1-0.1-0.2-0.1-0.3s0.1-0.2,0.1-0.3l3.3-6.8c0-0.1,0.1-0.2,0.2-0.2c0.1-0.1,0.2-0.1,0.3-0.1c0.1,0,0.1,0,0.2,0  s0.1,0.1,0.2,0.1c0,0,0.1,0.1,0.1,0.2L266.2,63.6z M260.2,62.1l0.4-0.9h3.5l0.4,0.9H260.2z"></path></g><g>	<path class="st0" d="M51.6,31.2c-0.1,7.1-2.6,13.4-6.2,19.3c-1.5,2.5-3.5,4.6-5.1,7c-3.8,5.5-5.1,11.3-3.4,17.8  c0.3,1,0.3,1.7-1.1,1.2c-6.5-2.4-12.7-5.2-17.7-10.1c-7.8-7.7-8.8-16.1-3.3-25.7c2.2-3.8,5.2-6.9,8.1-10.2c4.3-4.8,8-10,9.5-16.4  c0.7-3,0.9-6-0.7-8.9c-0.2-0.3-0.5-0.7-0.2-1.1s0.8,0,1.1,0.2C40.3,8.6,46.9,14,50,22.7C51,25.4,51.6,28.2,51.6,31.2z"></path>	<path class="st0" d="M54.8,32.2c1.9,2.8,3.2,5.5,4.4,8.4c1.6,4.2,2.4,8.5,1.9,13c-0.6,5.3-3.2,9.5-7.3,12.8  c-3.3,2.6-6.8,4.9-10.2,7.4c-0.5,0.4-1,0.8-1.5,1.2c-1.1,0.9-1.3,0.8-1.8-0.6c-1.3-3.9-0.3-7.5,1.3-11c1.3-2.8,3.1-5.2,5-7.6  c4.9-6.1,7.2-13.2,8.2-20.9C54.9,34.2,54.8,33.3,54.8,32.2z"></path></g></svg>