<svg xmlns="http://www.w3.org/2000/svg" xmlns:xlink="http://www.w3.org/1999/xlink" id="Camada_1" x="0px" y="0px" viewBox="0 0 592.9 108.4" style="enable-background:new 0 0 592.9 108.4;" xml:space="preserve"><style type="text/css">	.st0{fill:#262747;}	.st1{fill:#C52E2D;}</style><path class="st0" d="M534.6,13.4H323.8v5h142.3v72.8H323.8v5h210.7c22.8,0,41.4-18.6,41.4-41.4C575.9,32,557.4,13.4,534.6,13.4z  M501.6,59.4c-2.4-5.6-4.9-11.1-7.3-16.7c-2.1-4.7-4.1-9.5-6.2-14.2c-0.1-0.3-0.2-0.6-0.4-1c2.7,0,5.3,0,7.8,0 c0.7,0,0.7,0.5,0.8,0.9c3.9,8.8,7.7,17.7,11.6,26.6c0.7,1.7,1.5,3.5,2.3,5.4c-2.7,0-5.3,0-8,0C501.8,60.2,501.7,59.8,501.6,59.4z  M511.5,82.4c-2-4.6-4-9.2-6-13.7c-0.4-0.8-0.3-1,0.7-1c2,0.1,4.1,0,6.1,0c0.9,0,1.3-0.2,1.7-1.1c5.6-12.7,11.3-25.4,16.8-38.1 c0.3-0.7,0.7-1.1,1.6-1.1c2.3,0.1,4.7,0,7.2,0c-0.5,1.1-0.9,2.1-1.4,3.2c-4.2,9.4-8.3,18.7-12.5,28.1l-0.8,1.8 c-1.1,2.4-2.1,4.8-3.2,7.2c-0.8,1.8-1.6,3.6-2.4,5.4c-1.6,3.7-3.3,7.5-4.9,11.2C512.3,84.4,511.8,83.3,511.5,82.4z M526.5,70.1 c-3.1,4.2-6.2,8.5-9.3,12.7c-0.7,1.1-1.5,1.4-2.8,1.4c1.6-3.7,3.3-7.5,4.9-11.2c0.8-1.8,1.6-3.6,2.4-5.4c2.1,0,4.2,0,6.5,0 C527.6,68.6,527.1,69.4,526.5,70.1z M550.2,37.7c-5.3,7.3-10.7,14.6-16,21.9c-0.5,0.7-1.1,1.1-2.1,1c-2-0.1-4,0-6,0H525 c5.2-7.2,11.5-15.8,16.8-23c0.5-0.7,1.1-1,2-1c2.3,0.1,4.6,0,6.9,0C550.7,37.2,550.4,37.4,550.2,37.7z"></path><g>	<path class="st0" d="M346.4,29.1c2.2,2.2,3.3,4.9,3.3,8c0,3.1-1.1,5.8-3.3,8c-2.2,2.2-4.9,3.3-8,3.3s-5.8-1.1-8-3.3  c-2.2-2.2-3.3-4.9-3.3-8c0-3.1,1.1-5.8,3.3-8s4.9-3.3,8-3.3S344.2,26.9,346.4,29.1z M332.9,31.6c-1.5,1.5-2.3,3.4-2.3,5.5  c0,2.2,0.8,4,2.3,5.5c1.5,1.5,3.4,2.3,5.5,2.3c2.2,0,4-0.8,5.5-2.3c1.5-1.5,2.3-3.4,2.3-5.5c0-2.2-0.8-4-2.3-5.5  c-1.5-1.5-3.4-2.3-5.5-2.3C336.2,29.3,334.4,30.1,332.9,31.6z"></path>	<path class="st0" d="M361.1,25.8c0.5,0,0.9,0.2,1.2,0.5c0.3,0.3,0.5,0.8,0.5,1.2v0c0,0.5-0.2,0.9-0.5,1.2c-0.3,0.3-0.8,0.5-1.2,0.5  h-0.8c-0.8,0-1.5,0.3-2,0.8c-0.5,0.6-0.8,1.1-0.8,1.6h3.7c0.5,0,0.9,0.2,1.2,0.5c0.3,0.3,0.5,0.8,0.5,1.2v0c0,0.5-0.2,0.9-0.5,1.2  c-0.3,0.3-0.8,0.5-1.2,0.5h-3.7v11.4c0,0.5-0.2,0.9-0.5,1.2c-0.3,0.3-0.8,0.5-1.2,0.5h0c-0.5,0-0.9-0.2-1.2-0.5  c-0.3-0.3-0.5-0.7-0.5-1.2V32.2c0-1.8,0.6-3.3,1.9-4.5c1.2-1.2,2.8-1.9,4.5-1.9H361.1z"></path>	<path class="st0" d="M373.6,25.8c0.5,0,0.9,0.2,1.3,0.5c0.3,0.3,0.5,0.8,0.5,1.2v0c0,0.5-0.2,0.9-0.5,1.2c-0.3,0.3-0.8,0.5-1.3,0.5  h-0.8c-0.8,0-1.5,0.3-2,0.8c-0.5,0.6-0.8,1.1-0.8,1.6h3.7c0.5,0,0.9,0.2,1.3,0.5c0.3,0.3,0.5,0.8,0.5,1.2v0c0,0.5-0.2,0.9-0.5,1.2  c-0.3,0.3-0.8,0.5-1.3,0.5h-3.7v11.4c0,0.5-0.2,0.9-0.5,1.2c-0.3,0.3-0.8,0.5-1.2,0.5h0c-0.5,0-0.9-0.2-1.2-0.5  c-0.3-0.3-0.5-0.7-0.5-1.2V32.2c0-1.8,0.6-3.3,1.9-4.5c1.3-1.2,2.8-1.9,4.5-1.9H373.6z"></path>	<path class="st0" d="M381.2,29.9c-0.6,0-1-0.2-1.4-0.6c-0.4-0.4-0.6-0.9-0.6-1.4c0-0.6,0.2-1,0.6-1.4c0.4-0.4,0.9-0.6,1.4-0.6  c0.6,0,1,0.2,1.4,0.6c0.4,0.4,0.6,0.9,0.6,1.4c0,0.6-0.2,1.1-0.6,1.4C382.2,29.7,381.7,29.9,381.2,29.9z M381.2,31.8  c0.5,0,0.9,0.2,1.2,0.5c0.3,0.3,0.5,0.8,0.5,1.2v13.2c0,0.5-0.2,0.9-0.5,1.2c-0.3,0.3-0.7,0.5-1.2,0.5h0c-0.5,0-0.9-0.2-1.3-0.5  c-0.3-0.3-0.5-0.7-0.5-1.2V33.5c0-0.5,0.2-0.9,0.5-1.2S380.7,31.8,381.2,31.8L381.2,31.8z"></path>	<path class="st0" d="M398.3,32.2c0.8,0.3,1.2,0.8,1.2,1.7v0.1c0,0.6-0.2,1.1-0.7,1.4c-0.3,0.2-0.7,0.3-1,0.3c-0.2,0-0.4,0-0.6-0.1  c-0.5-0.2-1-0.2-1.5-0.2c-1.3,0-2.5,0.5-3.4,1.4c-0.9,0.9-1.4,2.1-1.4,3.4c0,1.3,0.5,2.5,1.4,3.4c0.9,0.9,2.1,1.4,3.4,1.4  c0.5,0,1-0.1,1.5-0.2c0.2-0.1,0.4-0.1,0.6-0.1c0.4,0,0.7,0.1,1,0.3c0.5,0.3,0.7,0.8,0.7,1.4c0,0.9-0.4,1.4-1.2,1.7  c-0.8,0.3-1.7,0.4-2.5,0.4c-2.3,0-4.3-0.8-5.9-2.5c-1.6-1.6-2.5-3.6-2.5-5.9s0.8-4.3,2.5-5.9c1.6-1.6,3.6-2.5,5.9-2.5  C396.7,31.8,397.5,31.9,398.3,32.2z"></path>	<path class="st0" d="M405.9,29.9c-0.6,0-1-0.2-1.4-0.6c-0.4-0.4-0.6-0.9-0.6-1.4c0-0.6,0.2-1,0.6-1.4c0.4-0.4,0.9-0.6,1.4-0.6  c0.6,0,1,0.2,1.4,0.6c0.4,0.4,0.6,0.9,0.6,1.4c0,0.6-0.2,1.1-0.6,1.4C406.9,29.7,406.4,29.9,405.9,29.9z M405.9,31.8  c0.5,0,0.9,0.2,1.2,0.5c0.3,0.3,0.5,0.8,0.5,1.2v13.2c0,0.5-0.2,0.9-0.5,1.2c-0.3,0.3-0.7,0.5-1.2,0.5h0c-0.5,0-0.9-0.2-1.2-0.5  c-0.3-0.3-0.5-0.7-0.5-1.2V33.5c0-0.5,0.2-0.9,0.5-1.2S405.4,31.8,405.9,31.8L405.9,31.8z"></path>	<path class="st0" d="M426.9,34.2c1.6,1.6,2.5,3.6,2.5,5.9v6.6c0,0.5-0.2,0.9-0.5,1.2c-0.3,0.3-0.8,0.5-1.2,0.5h0  c-0.5,0-0.9-0.2-1.2-0.5c-0.3-0.3-0.5-0.7-0.5-1.2c-1.1,1.2-2.7,1.8-4.8,1.8c-2.3,0-4.3-0.8-5.9-2.5s-2.5-3.6-2.5-5.9  s0.8-4.3,2.5-5.9c1.6-1.6,3.6-2.5,5.9-2.5C423.3,31.8,425.2,32.6,426.9,34.2z M417.5,36.7c-0.9,0.9-1.4,2.1-1.4,3.4  c0,1.3,0.5,2.5,1.4,3.4c0.9,0.9,2.1,1.4,3.4,1.4c1.3,0,2.5-0.5,3.4-1.4c0.9-0.9,1.4-2.1,1.4-3.4c0-1.3-0.5-2.5-1.4-3.4  c-0.9-0.9-2.1-1.4-3.4-1.4C419.6,35.3,418.5,35.8,417.5,36.7z"></path>	<path class="st0" d="M436.1,25.8c0.5,0,0.9,0.2,1.2,0.5c0.3,0.3,0.5,0.8,0.5,1.2v19.2c0,0.5-0.2,0.9-0.5,1.2  c-0.3,0.3-0.8,0.5-1.2,0.5h0c-0.5,0-0.9-0.2-1.2-0.5c-0.3-0.3-0.5-0.7-0.5-1.2V27.6c0-0.5,0.2-0.9,0.5-1.2  C435.2,26,435.6,25.8,436.1,25.8L436.1,25.8z"></path>	<path class="st0" d="M331,71.2v5.5c0,0.5-0.2,0.9-0.5,1.2c-0.3,0.3-0.8,0.5-1.2,0.5h0c-0.5,0-0.9-0.2-1.2-0.5  c-0.3-0.3-0.5-0.7-0.5-1.2V63.5c0-2.1,0.8-4,2.3-5.5c1.5-1.5,3.3-2.3,5.4-2.3c2.1,0,3.9,0.8,5.4,2.3c1.5,1.5,2.3,3.3,2.3,5.5  c0,2.1-0.8,3.9-2.3,5.4c-1.5,1.5-3.3,2.3-5.4,2.3H331z M331,67.7h4.2c1.2,0,2.1-0.4,2.9-1.2c0.8-0.8,1.2-1.8,1.2-2.9  c0-1.2-0.4-2.1-1.2-2.9c-0.8-0.8-1.8-1.2-2.9-1.2c-1.2,0-2.1,0.4-2.9,1.2c-0.8,0.8-1.2,1.8-1.2,2.9V67.7z"></path>	<path class="st0" d="M361.1,64.2c1.6,1.6,2.5,3.6,2.5,5.9v6.6c0,0.5-0.2,0.9-0.5,1.2c-0.3,0.3-0.8,0.5-1.2,0.5h0  c-0.5,0-0.9-0.2-1.2-0.5c-0.3-0.3-0.5-0.7-0.5-1.2c-1.1,1.2-2.7,1.8-4.8,1.8c-2.3,0-4.3-0.8-5.9-2.5s-2.5-3.6-2.5-5.9  s0.8-4.3,2.5-5.9c1.6-1.6,3.6-2.5,5.9-2.5C357.5,61.8,359.5,62.6,361.1,64.2z M351.8,66.7c-0.9,0.9-1.4,2.1-1.4,3.4  c0,1.3,0.5,2.5,1.4,3.4c0.9,0.9,2.1,1.4,3.4,1.4c1.3,0,2.5-0.5,3.4-1.4c0.9-0.9,1.4-2.1,1.4-3.4c0-1.3-0.5-2.5-1.4-3.4  c-0.9-0.9-2.1-1.4-3.4-1.4C353.9,65.3,352.7,65.8,351.8,66.7z"></path>	<path class="st0" d="M375.2,61.8c0.5,0,0.9,0.2,1.3,0.5c0.3,0.3,0.5,0.8,0.5,1.2v0c0,0.5-0.2,0.9-0.5,1.2c-0.3,0.3-0.8,0.5-1.3,0.5  h-0.8c-0.8,0-1.5,0.3-2,0.8c-0.5,0.6-0.8,1.2-0.8,2v8.6c0,0.5-0.2,0.9-0.5,1.2c-0.3,0.3-0.8,0.5-1.2,0.5h0c-0.5,0-0.9-0.2-1.2-0.5  c-0.3-0.3-0.5-0.7-0.5-1.2v-8.6c0-1.8,0.6-3.3,1.9-4.5c1.3-1.2,2.8-1.9,4.5-1.9H375.2z"></path>	<path class="st0" d="M381.8,55.8c0.5,0,0.9,0.2,1.2,0.5c0.3,0.3,0.5,0.8,0.5,1.2v4.2h2.2c0.5,0,0.9,0.2,1.2,0.5s0.5,0.8,0.5,1.2v0  c0,0.5-0.2,0.9-0.5,1.2c-0.3,0.3-0.8,0.5-1.2,0.5h-2.2v8.6c0,0.3,0.1,0.5,0.3,0.7c0.2,0.2,0.4,0.3,0.7,0.3h1.2  c0.5,0,0.9,0.2,1.2,0.5s0.5,0.8,0.5,1.2v0c0,0.5-0.2,0.9-0.5,1.2c-0.3,0.3-0.8,0.5-1.2,0.5h-1.2c-1.3,0-2.3-0.4-3.2-1.3  c-0.9-0.9-1.3-2-1.3-3.2V57.6c0-0.5,0.2-0.9,0.5-1.2C380.9,56,381.3,55.8,381.8,55.8L381.8,55.8z"></path>	<path class="st0" d="M394.6,76.7c0,0.5-0.2,0.9-0.5,1.2c-0.3,0.3-0.8,0.5-1.2,0.5h0c-0.5,0-0.9-0.2-1.2-0.5  c-0.3-0.3-0.5-0.7-0.5-1.2v-7.9c0-1.9,0.7-3.6,2.1-5s3-2.1,5-2.1c1.9,0,3.6,0.7,5,2.1s2.1,3,2.1,5v7.9c0,0.5-0.2,0.9-0.5,1.2  c-0.3,0.3-0.7,0.5-1.2,0.5h0c-0.5,0-0.9-0.2-1.3-0.5c-0.3-0.3-0.5-0.7-0.5-1.2v-7.9c0-1-0.3-1.8-1-2.5c-0.7-0.7-1.5-1-2.5-1  c-1,0-1.8,0.3-2.5,1c-0.7,0.7-1,1.5-1,2.5V76.7z"></path>	<path class="st0" d="M425,66.6c0.1,0.2,0.2,0.5,0.2,0.7c0,0.2,0,0.4-0.1,0.6c-0.2,0.5-0.5,0.8-0.9,1c-1.4,0.6-3.1,1.4-5.3,2.4  c-2.7,1.2-4.3,2-4.8,2.2c0.7,0.9,1.9,1.4,3.4,1.4c1,0,2-0.3,2.8-0.9c0.8-0.6,1.4-1.4,1.7-2.3c0.3-0.8,0.8-1.2,1.7-1.2  c0.6,0,1.1,0.3,1.4,0.8c0.2,0.3,0.3,0.6,0.3,1c0,0.2,0,0.4-0.1,0.6c-0.6,1.7-1.6,3-3,4c-1.5,1.1-3.1,1.6-4.9,1.6  c-2.3,0-4.3-0.8-5.9-2.5c-1.6-1.6-2.5-3.6-2.5-5.9s0.8-4.3,2.5-5.9c1.6-1.6,3.6-2.5,5.9-2.5c1.7,0,3.2,0.5,4.6,1.4  C423.4,64,424.4,65.2,425,66.6z M417.4,65.3c-1.3,0-2.5,0.5-3.4,1.4c-0.9,0.9-1.4,2.1-1.4,3.4v0.1l8.1-3.6  C420,65.8,418.9,65.3,417.4,65.3z"></path>	<path class="st0" d="M436.8,61.8c0.5,0,0.9,0.2,1.2,0.5c0.3,0.3,0.5,0.8,0.5,1.2v0c0,0.5-0.2,0.9-0.5,1.2c-0.3,0.3-0.8,0.5-1.2,0.5  h-0.8c-0.8,0-1.5,0.3-2,0.8c-0.5,0.6-0.8,1.2-0.8,2v8.6c0,0.5-0.2,0.9-0.5,1.2c-0.3,0.3-0.8,0.5-1.2,0.5h0c-0.5,0-0.9-0.2-1.2-0.5  c-0.3-0.3-0.5-0.7-0.5-1.2v-8.6c0-1.8,0.6-3.3,1.9-4.5c1.2-1.2,2.8-1.9,4.5-1.9H436.8z"></path></g><path class="st0" d="M268.4,91.2H57.7c-20.1,0-36.4-16.3-36.4-36.4s16.3-36.4,36.4-36.4h209.6l44.5-5v0H57.7 c-22.8,0-41.4,18.6-41.4,41.4c0,22.8,18.6,41.4,41.4,41.4h254L268.4,91.2z"></path><g>	<g>		<path class="st0" d="M150.5,59.4c0,6.1-4.9,11-11,11c-6.4,0-11.3-4.8-11.3-11c0-6.2,4.9-11,11.1-11   C145.4,48.5,150.5,53.4,150.5,59.4z M139.4,52.4c-0.8,0-1.6,0.1-2.4,0.4c-3,1.2-4.7,4.3-4.3,7.8c0.5,4,4.5,6.7,8.4,5.7   c2.7-0.7,4.7-3.2,5.1-6.2C146.5,56.1,143.3,52.4,139.4,52.4z"></path>		<path class="st0" d="M89,56.5c-0.5,0-0.5-0.1-0.4-0.5c1.1-3,3.1-5.3,6-6.6c6.5-3,14.1,0.8,15.7,7.8c1.4,6.1-3.2,12.4-9.3,13.1   c-5.3,0.6-9.9-1.9-11.9-6.4c-0.4-0.8-0.6-1.6-0.8-2.5c-0.1-0.4,0-0.5,0.4-0.5c1.2,0,2.3,0,3.5,0c0.4,0,0.5,0.1,0.6,0.5   c0.8,3.1,3.5,5.2,6.5,5.2c3.2,0,5.9-2.3,6.6-5.6c0.7-3.3-1-6.7-4-8c-3.2-1.4-6.9-0.1-8.6,3.2c-0.2,0.4-0.4,0.5-0.8,0.5"></path>		<path class="st0" d="M126.2,65.4c0,1.2,0,2.5,0,3.7c0,0.3-0.3,0.4-0.4,0.5c-1.7,0.8-3.5,1-5.4,0.8c-0.4,0-0.9-0.1-1.3-0.2   c-2.3-0.5-3.3-2.2-3.7-4.4c-0.2-1.1-0.2-2.3-0.2-3.4c0-3.1,0-6.1,0-9.2c0-0.4-0.1-0.6-0.5-0.6c-0.9,0-1.8,0-2.7,0   c-0.5,0-0.4-0.2-0.3-0.5c0-0.1,0.1-0.2,0.2-0.2c2.2-2.5,4.5-5,6.7-7.5c0.1-0.1,0.2-0.2,0.2-0.3c0.1-0.1,0.3-0.1,0.4-0.1   c0.2,0,0.1,0.2,0.1,0.3c0,1.3,0,2.7,0,4c0,0.5,0.2,0.6,0.6,0.6c1.8,0,3.6,0,5.4,0c0.5,0,0.6,0.2,0.6,0.6c0,0.8,0,1.7,0,2.5   c0,0.5-0.1,0.6-0.6,0.6c-1.8,0-3.7,0-5.5,0c-0.4,0-0.5,0.1-0.5,0.5c0,3.2,0,6.3,0,9.5c0,0.7,0.1,1.4,0.2,2.1   c0.2,1,0.8,1.5,1.7,1.7c1.5,0.3,2.9,0,4.2-0.7c0.1-0.1,0.3-0.1,0.4-0.2C126.1,65.4,126.1,65.4,126.2,65.4z"></path>		<path class="st0" d="M79,57.1L79,57.1c-0.6,1.4-1.2,2.7-1.8,4.1c-0.4,1-0.9,2-1.4,3.1c-0.9,2.1-1.9,4.3-2.8,6.4   c-1.2,0.1-1.5-0.6-1.7-1.1c-1.1-2.6-2.3-5.2-3.4-7.8c-0.2-0.5-0.2-0.6,0.4-0.6c1.2,0,2.3,0,3.5,0c0.5,0,0.8-0.1,1-0.6   c3.2-7.2,6.4-14.4,9.6-21.6c0.2-0.4,0.4-0.6,0.9-0.6c1.3,0,2.7,0,4.1,0c-0.3,0.6-0.5,1.2-0.8,1.8c-2.4,5.3-4.7,10.6-7.1,16"></path>		<path class="st0" d="M158.6,51.5c1.3-1.2,2.6-2.2,4.2-2.6c2.7-0.7,5.3-0.4,7.5,1.5c1.4,1.3,2,3,2.1,4.9c0,0.3-0.1,0.4-0.4,0.4   c-1.2,0-2.4,0-3.5,0c-0.2,0-0.4-0.1-0.4-0.3c0-0.3-0.1-0.5-0.2-0.8c-0.4-1.3-1.4-2.1-2.7-2.4c-2.6-0.5-4.7,0.3-6.3,2.3   c-0.2,0.2-0.2,0.5-0.2,0.8c0,4.7,0,9.4,0,14.1c0,0.5-0.2,0.6-0.6,0.6c-1,0-2.1,0-3.1,0c-0.3,0-0.4-0.1-0.4-0.4   c0-6.8,0-13.5,0-20.3c0-0.3,0.1-0.4,0.4-0.4c1.1,0,2.2,0,3.3,0c0.4,0,0.5,0.2,0.5,0.5C158.6,50.1,158.6,50.7,158.6,51.5z"></path>		<path class="st0" d="M176,53.8c2.6-5.2,8.5-8.2,14.1-6.9c5.3,1.3,9.2,6,9.4,11.4c0.2,5.7-3.2,10.6-8.5,12.4   c-5.1,1.7-11.9-0.5-15-6.6c0,1.7,0,3.4,0,5c0,0.3,0,0.7,0,1c0,0.4-0.1,0.7-0.5,0.7c-0.4,0-0.5-0.3-0.5-0.6c0-2.9,0-5.7,0-8.6   c0-0.3,0.1-0.4,0.4-0.4c0.6,0,0.9,0.1,1.1,0.7c1.4,4.9,6.1,8.4,11.4,8.3c4.8-0.1,9.3-3.8,10.5-8.6c1.8-7.1-3.8-14.1-11.2-13.9   c-4.5,0.1-8.8,3.2-10.4,7.4c-0.1,0.2-0.1,0.6-0.3,0.6c-0.4,0.1-0.9,0.1-1.3,0c-0.2,0-0.1-0.3-0.1-0.4c0-1.9,0-3.7,0-5.5   c0-3,0-5.9,0-8.9c0-0.2,0-0.4,0-0.5c0.1-0.3,0.2-0.4,0.5-0.4c0.3,0,0.4,0.2,0.5,0.4c0,0.2,0,0.4,0,0.5c0,4.1,0,8.3,0,12.4   C176,53.4,176,53.6,176,53.8z"></path>		<path class="st0" d="M57.9,38.3c1.5,0,3,0,4.5,0c0.4,0,0.4,0.3,0.5,0.5c2.2,5,4.4,10.1,6.6,15.1c0.4,1,0.8,2,1.3,3   c-1.6,0-3,0-4.5,0c-0.3,0-0.4-0.3-0.4-0.5c-1.4-3.2-2.8-6.3-4.1-9.5c-1.2-2.7-2.3-5.4-3.5-8.1C58,38.7,57.9,38.5,57.9,38.3z"></path>		<path class="st0" d="M79.2,57"></path>		<path class="st0" d="M79,57.1"></path>		<path class="st0" d="M79.1,57.2c3-4.1,6.6-9,9.5-13.1c0.3-0.4,0.6-0.6,1.1-0.6c1.3,0,2.6,0,3.9,0c0,0.3-0.2,0.4-0.3,0.6   c-3,4.2-6.1,8.3-9.1,12.5c-0.3,0.4-0.6,0.6-1.2,0.6c-1.1,0-2.3,0-3.4,0"></path>		<path class="st0" d="M205.6,52c1.1-2.1,2.9-3.5,5-4.3c3.3-1.3,6.4-0.6,9.2,1.3c0.3,0.2,0.5,0.4,0.7,0.6c0.1,0.2,0.2,0.4,0,0.6   c-0.2,0.2-0.5,0.2-0.7,0.1c-0.2-0.2-0.5-0.4-0.7-0.5c-2.6-1.9-5.4-2.3-8.4-1c-3,1.3-4.6,3.7-5,6.9c-0.1,0.7-0.1,1.5-0.1,2.2   c0,3.9,0,7.9,0,11.8c0,0.2,0,0.4,0,0.5c0,0.3-0.2,0.4-0.5,0.4c-0.3,0-0.4-0.2-0.5-0.4c0-0.2,0-0.3,0-0.5c0-7.4,0-14.8,0-22.2   c0-0.1,0-0.2,0-0.3c0-0.3,0.1-0.6,0.5-0.6c0.4,0,0.5,0.2,0.5,0.6c0,0.6,0,1.1,0,1.7C205.6,50,205.6,51,205.6,52z"></path>		<path class="st0" d="M168.3,65.5c0-1.3,0-2.6,0-4c0-0.4,0.1-0.5,0.5-0.5c1.1,0,2.2,0,3.2,0c0.3,0,0.5,0,0.5,0.4c0,2.7,0,5.4,0,8.1   c0,0.3,0,0.4-0.4,0.4c-1.2,0-2.3,0-3.5,0c-0.4,0-0.4-0.2-0.4-0.4C168.3,68.3,168.3,66.9,168.3,65.5z"></path>		<path class="st0" d="M73.1,70.6c0.9-2.1,1.9-4.3,2.8-6.4c0.4-1,0.9-2,1.4-3.1c1.2,0,2.4,0,3.7,0c-0.4,0.5-0.7,1-1,1.4   c-1.8,2.4-3.5,4.8-5.3,7.2C74.2,70.4,73.8,70.6,73.1,70.6z"></path>		<path class="st0" d="M79.2,57"></path>	</g></g><path class="st1" d="M284,23.2l26.6-3.8l0,70.8l-26.8-4c-1.5-0.2-2.5-1.5-2.5-2.9c0-10.1,0-47,0.1-57.1 C281.5,24.6,282.6,23.4,284,23.2z"></path></svg>